<svg xmlns="http://www.w3.org/2000/svg" width="1000" height="1000" viewBox="0 0 1000 1000" version="1.1"><path d="M 600.815 0.519 C 600.529 0.804, 493.467 27.762, 362.898 60.425 C 232.329 93.088, 124.769 120.106, 123.876 120.465 C 122.983 120.824, 121.509 122.553, 120.600 124.309 C 119.692 126.064, 111.769 156.750, 102.995 192.500 C 83.232 273.016, 54.649 386.008, 52.559 391.876 C 51.701 394.282, 51 397.297, 51 398.576 C 51 401.106, 22.619 515.551, 15.557 541.500 C 9.599 563.391, 0.980 599.905, 0.991 603.210 C 0.998 605.454, 9.624 614.472, 51.250 655.751 C 78.887 683.158, 107.125 710.993, 114 717.607 C 120.875 724.220, 131.656 735.002, 137.957 741.566 C 144.259 748.130, 170.584 774.770, 196.457 800.767 L 243.500 848.034 248 847.439 C 250.475 847.111, 254.839 846.198, 257.697 845.409 C 265.778 843.179, 309.182 833.379, 333 828.407 C 344.825 825.938, 376.775 818.782, 404 812.504 C 431.225 806.227, 464.975 798.615, 479 795.589 C 493.025 792.563, 536.675 782.886, 576 774.084 C 615.325 765.282, 663.700 754.466, 683.500 750.047 C 703.300 745.628, 723.659 741.079, 728.742 739.936 C 738.611 737.719, 741 735.981, 741 731.021 C 741 728.237, 743.967 714.348, 749.977 689 C 752.128 679.925, 758.879 650, 764.979 622.500 C 771.079 595, 777.138 568.450, 778.442 563.500 C 779.747 558.550, 781.329 551.350, 781.958 547.500 C 783.264 539.505, 791.475 502.279, 796.516 481.500 C 798.384 473.800, 802.440 455.350, 805.529 440.500 C 808.619 425.650, 812.711 406.750, 814.622 398.500 C 816.534 390.250, 821.700 367.300, 826.103 347.500 C 830.505 327.700, 837.520 296.650, 841.691 278.500 C 845.862 260.350, 849.496 244.213, 849.767 242.640 C 850.226 239.974, 842.072 231.591, 730.385 119.890 L 610.511 0 605.922 0 C 603.398 0, 601.100 0.233, 600.815 0.519 M 593 17.485 C 572.251 23.085, 508.350 39.496, 497 42.141 C 480.665 45.947, 282.554 94.965, 228.500 108.576 C 205.400 114.392, 185.099 119.236, 183.387 119.339 C 181.675 119.443, 179.511 120.161, 178.577 120.936 C 177.643 121.711, 174.319 122.546, 171.189 122.791 C 168.060 123.036, 164.825 123.795, 164 124.478 C 163.175 125.160, 158 126.740, 152.500 127.988 C 135.625 131.818, 133.365 132.682, 132.183 135.753 C 131.601 137.264, 130.834 140.075, 130.479 142 C 130.123 143.925, 127.647 153.600, 124.976 163.500 C 119.713 183.002, 107.395 232.338, 99.009 267.500 C 96.124 279.600, 76.491 358.911, 55.381 443.747 C 34.272 528.582, 17 598.895, 17 599.997 C 17 601.099, 17.421 602, 17.935 602 C 18.450 602, 26.212 600.011, 35.185 597.580 C 44.158 595.150, 74.900 587.450, 103.500 580.469 C 132.100 573.489, 157.124 567.129, 159.109 566.337 C 161.094 565.544, 163.212 563.907, 163.816 562.698 C 164.420 561.489, 167.203 550.825, 170 539 C 172.798 527.175, 178.441 504, 182.540 487.500 C 190.602 455.050, 212.366 365.132, 222.113 324 C 235.777 266.336, 242.050 242.542, 244.032 240.854 C 245.095 239.949, 248.335 238.672, 251.232 238.017 C 254.130 237.362, 282.600 230.379, 314.500 222.501 C 425.283 195.140, 494.700 178.118, 530.500 169.532 C 550.300 164.784, 567.007 160.359, 567.626 159.700 C 568.693 158.562, 603.165 21.607, 603.392 17.601 C 603.545 14.916, 602.561 14.905, 593 17.485 M 704.500 127.948 C 694.050 130.549, 660.075 138.845, 629 146.384 C 580.390 158.177, 572.201 160.424, 570.358 162.475 C 568.719 164.301, 564.437 180.052, 552.091 229.680 C 543.221 265.331, 533.109 305.975, 529.620 320 C 522.783 347.476, 512.179 390.591, 498.431 446.813 C 492.040 472.949, 489.237 482.766, 487.648 484.589 C 486.136 486.323, 483.871 487.315, 480 487.939 C 476.975 488.426, 446.600 495.875, 412.500 504.492 C 378.400 513.108, 327.100 525.975, 298.500 533.084 C 269.900 540.193, 235.700 548.762, 222.500 552.125 C 209.300 555.488, 191.170 560.048, 182.211 562.259 C 170.226 565.216, 165.664 566.760, 164.946 568.102 C 164.409 569.104, 160.606 584.004, 156.494 601.212 C 152.382 618.421, 147.620 638.125, 145.912 645 C 133.740 694, 127.040 721.750, 127.022 723.250 C 127.006 724.486, 127.786 725, 129.677 725 C 134.048 725, 605.356 606.907, 607.094 605.377 C 607.971 604.604, 609.246 601.391, 609.928 598.236 C 610.610 595.081, 612.975 585.750, 615.182 577.500 C 617.389 569.250, 624.742 539.775, 631.521 512 C 645.187 456.009, 677.117 329.045, 708.478 206 C 719.762 161.725, 728.785 124.938, 728.529 124.250 C 727.834 122.385, 725.264 122.781, 704.500 127.948 M 879.649 276.750 C 878.818 279.363, 877.829 283.525, 877.452 286 C 877.075 288.475, 874.330 301.300, 871.351 314.500 C 868.373 327.700, 864.128 346.600, 861.918 356.500 C 851.655 402.468, 841.677 446.161, 837.481 463.500 C 834.952 473.950, 831.127 491.050, 828.981 501.500 C 825.368 519.087, 792.008 667.946, 776.427 736 C 772.713 752.225, 769.185 766.039, 768.587 766.697 C 767.989 767.356, 757.150 770.141, 744.500 772.886 C 731.850 775.632, 711.825 780.130, 700 782.883 C 667.189 790.523, 529.324 821.321, 495.500 828.567 C 479 832.102, 462.575 835.855, 459 836.906 C 455.425 837.957, 450.925 839.119, 449 839.488 C 439.217 841.365, 365.488 857.693, 345 862.521 C 332.075 865.566, 311.601 870.211, 299.501 872.843 C 283.294 876.369, 277.426 878.027, 277.211 879.144 C 276.781 881.373, 393.586 999.413, 396.620 999.816 C 397.929 999.990, 399 999.711, 399 999.196 C 399 998.680, 401.627 997.961, 404.837 997.598 C 411.049 996.895, 461.497 986.789, 517.500 975.029 C 536.200 971.102, 559.825 966.337, 570 964.439 C 584.386 961.756, 710.706 936.696, 862 906.510 C 892.801 900.365, 898.342 899.087, 899.587 897.842 C 900.356 897.072, 902.490 888.180, 904.354 877.975 C 906.209 867.814, 912.720 834.750, 918.822 804.500 C 924.923 774.250, 932.378 736.900, 935.386 721.500 C 938.395 706.100, 948.347 656.600, 957.501 611.500 C 966.656 566.400, 975.880 520.050, 978 508.500 C 980.119 496.950, 985.937 467.484, 990.927 443.020 C 995.917 418.555, 1000 397.168, 1000 395.492 C 1000 393.816, 999.238 391.332, 998.306 389.973 C 996.053 386.682, 882.925 272, 881.934 272 C 881.508 272, 880.481 274.137, 879.649 276.750" stroke="none" fill="#1b9200" fill-rule="evenodd"/></svg>